PathFileType	4	(X/Y/Z)	D:\Long Term Storage\D'Arcy Smith\Coord12.trc
DataRate	CameraRate	NumFrames	NumMarkers	Units	OrigDataRate	OrigDataStartFrame	OrigNumFrames
120.00	120.00	      122	4	mm	120.00	1805	      4812
Frame#	Time	M1			M2			M3			M4			
		X1	Y1	Z1	X2	Y2	Z2	X3	Y3	Z3	X4	Y4	Z4	

1805	15.033	1006.47003	429.91486	149.23528	1630.73962	413.61899	194.64244							
1806	15.042	1005.58081	428.70264	150.92493	1631.47009	412.58591	196.71109							
1807	15.050	1004.59845	427.04745	152.88210	1631.78564	411.16177	198.80795							
1808	15.058	1003.76111	424.95041	155.20396	1632.51514	409.41614	201.60588							
1809	15.067	1002.86548	422.29593	157.99309	1632.91821	407.20493	204.39265							
1810	15.075	1001.94080	419.42801	160.96289	1633.42859	404.89291	207.65924							
1811	15.083	1001.05249	416.07367	164.34445	1633.61926	402.12936	211.04871							
1812	15.092	1000.59918	412.27414	167.92586	1633.89429	398.99536	214.82845							
1813	15.100	999.22528	408.41898	172.09030	1634.30859	395.86050	218.74973							
1814	15.108	998.75903	404.39999	176.14865	1634.50488	392.26395	222.95427							
1815	15.117	998.22510	400.10550	180.78946	1634.46423	388.35666	227.32347							
1816	15.125	997.74829	395.54138	185.56023	1634.45081	384.41891	231.98199							
1817	15.133	997.29358	390.75906	190.56500	1634.51074	380.34061	236.92462							
1818	15.142	997.14386	386.14813	195.74001	1634.25378	376.08987	241.96500							
1819	15.150	996.46356	380.92749	201.30786	1634.06128	371.74478	247.31125							
1820	15.158	996.51324	376.15439	206.99159	1634.04456	367.25861	252.90500							
1821	15.167	995.97449	370.69022	212.98738	1633.97510	362.65961	258.70724							
1822	15.175	996.66608	365.31879	219.19037	1633.79272	357.83643	264.86560							
1823	15.183	996.25812	359.80829	225.44461	1633.77930	353.07376	271.05756							
1824	15.192	996.57190	354.67194	231.87440	1633.74426	348.16525	277.68341							
1825	15.200	996.48297	349.33627	238.77545	1633.72913	343.25525	284.37283							
1826	15.208	996.70306	344.00702	245.69168	1633.66736	338.32321	291.57837							
1827	15.217	996.90082	338.83453	252.82552	1633.43689	333.46521	299.05008							
1828	15.225	997.27338	333.87582	260.10950	1633.20569	328.77051	306.63559							
1829	15.233	997.60431	328.88971	267.70129	1632.89124	324.08545	314.42773							
1830	15.242	998.06189	324.33487	275.45023	1632.40930	319.18192	322.81400							
1831	15.250	998.66864	319.43790	283.31531	1632.34888	315.11160	331.12332							
1832	15.258	998.76965	315.19193	291.26343	1632.15784	310.73639	339.96912							
1833	15.267	999.68707	310.59366	299.31131	1631.50244	306.61014	349.09808							
1834	15.275	1000.18964	306.17075	307.39594	1631.29333	302.82452	358.48471							
1835	15.283	1000.84479	302.14886	315.57632	1631.11438	298.82797	368.11951							
1836	15.292	1001.38391	298.15839	323.79407	1631.04846	295.32962	378.08505							
1837	15.300	1002.08698	294.20270	333.26410	1630.65881	292.17087	388.30847							
1838	15.308	1002.88885	290.90106	341.63950	1630.16626	289.58539	398.77304							
1839	15.317	1003.83734	287.93497	349.98450	1629.63721	287.51340	409.21573							
1840	15.325	1004.67712	285.32632	358.26367	1629.03943	285.89566	419.83145							
1841	15.333	1005.62952	282.86395	366.70068	1628.39941	284.77148	430.43976							
1842	15.342	1006.48792	280.70001	374.82941	1627.78259	283.87616	440.96661							
1843	15.350	1007.60162	278.50662	382.91443	1627.27710	283.47672	451.37659							
1844	15.358	1008.60284	276.54871	390.88321	1626.59253	283.15488	462.40396							
1845	15.367	1009.56775	274.70786	398.66217	1626.24036	283.08371	471.94708							
1846	15.375	1010.54602	273.04660	406.39966	1626.21472	283.88599	482.04019							
1847	15.383	1011.59033	271.59894	413.95840	1625.70032	284.38318	491.98563							
1848	15.392	1012.36816	270.36594	421.46176	1625.77222	285.26224	501.18185							
1849	15.400	1013.25842	269.39890	428.72000	1625.29431	286.55795	510.57932							
1850	15.408	1014.47766	268.79718	435.51572	1625.04578	288.16937	519.31030							
1851	15.417	1015.33069	268.30371	442.20328	1624.55786	289.68295	527.71265							
1852	15.425	1016.31799	268.15289	448.53705	1624.24451	291.54556	535.71301							
1853	15.433	1017.49957	267.77887	454.54004	1623.90051	293.24149	543.27631							
1854	15.442	1018.50336	267.81500	460.45517	1623.71436	295.27704	550.52625							
1855	15.450	1019.38196	267.78659	465.63174	1623.50476	297.16153	557.23077							
1856	15.458	1020.55499	267.78726	470.68015	1623.49524	299.06943	563.64319							
1857	15.467	1021.55505	267.89218	475.45447	1623.36475	300.71603	569.54028							
1858	15.475	1022.44049	267.83005	479.89935	1623.57874	302.44531	575.16443							
1859	15.483	1023.32605	267.84116	484.05460	1623.73218	303.84625	580.40143							
1860	15.492	1024.20056	268.44370	487.47183	1623.98523	305.33893	585.24152							
1861	15.500	1024.78967	268.33545	490.82315	1624.21216	306.63644	589.52637							
1862	15.508	1025.60168	268.33328	494.08029	1624.18433	307.75369	593.35272							
1863	15.517	1026.52234	268.41730	496.97852	1624.43762	309.21848	596.75348							
1864	15.525	1027.38586	268.30817	499.52737	1624.78699	310.27090	599.71387							
1865	15.533	1028.21069	268.42133	501.99466	1625.03320	311.28195	602.46802							
1866	15.542	1028.56519	268.24020	503.89316	1625.22766	311.71826	604.49701							
1867	15.550	1029.19788	268.09857	505.69647	1625.46899	312.31586	606.40881							
1868	15.558	1029.70581	267.88931	507.20135	1625.81616	312.70294	607.87646							
1869	15.567	1030.34058	267.61472	508.29712	1626.46094	313.12872	608.87213							
1870	15.575	1030.77112	267.30109	509.39218	1626.85583	313.17825	609.69336							
1871	15.583	1031.20325	266.96375	510.17105	1627.45728	313.14001	610.09186							
1872	15.592	1031.61743	266.68063	510.95236	1627.86121	312.94321	610.17297							
1873	15.600	1031.89380	266.38422	511.17578	1628.24988	312.63803	609.86694							
1874	15.608	1031.97522	266.10861	511.27844	1628.48254	312.25974	609.18335							
1875	15.617	1031.97742	265.90564	510.97964	1628.77161	311.75134	608.16919							
1876	15.625	1031.88513	265.76605	510.50763	1629.01135	311.11514	606.81287							
1877	15.633	1031.55994	265.61700	509.62247	1629.17700	310.62402	605.21161							
1878	15.642	1031.27783	265.69278	508.36649	1629.19275	309.45264	603.24176							
1879	15.650	1031.03967	265.79630	507.08240	1629.35840	308.50870	600.74042							
1880	15.658	1030.91931	265.99942	505.43814	1629.69836	307.45309	597.76892							
1881	15.667	1030.43933	265.95593	503.34485	1629.70154	306.09241	594.73633							
1882	15.675	1030.22156	266.24237	501.07211	1629.94580	305.10974	591.06812							
1883	15.683	1029.65759	266.30615	498.49960	1630.00171	303.94901	587.00494							
1884	15.692	1029.45251	266.64206	495.51129	1630.04297	302.75339	582.53302							
1885	15.700	1028.77563	266.82254	492.11273	1629.99670	301.40152	577.65015							
1886	15.708	1028.30652	267.27890	488.41135	1629.84998	300.08411	572.27136							
1887	15.717	1027.95398	267.35596	484.97150	1629.83618	298.78467	566.42609							
1888	15.725	1027.51245	267.97369	480.38702	1629.75354	297.43750	560.25238							
1889	15.733	1026.96240	268.72559	475.47626	1629.60730	295.96628	553.54059							
1890	15.742	1026.42188	269.42374	470.14258	1629.63623	294.83011	546.61475							
1891	15.750	1025.88574	270.12939	464.70419	1629.37549	293.48450	539.16626							
1892	15.758	1025.36646	270.88818	458.62796	1629.26331	292.24408	531.25226							
1893	15.767	1024.96667	271.83521	452.30194	1629.05273	291.19083	523.13306							
1894	15.775	1024.49817	272.78751	445.48734	1629.33948	290.19409	514.33002							
1895	15.783	1024.26819	273.82602	438.14572	1628.78003	289.43555	505.70584							
1896	15.792	1024.15222	275.03790	430.59018	1628.42761	288.58105	496.61380							
1897	15.800	1023.73633	276.25403	422.85144	1628.40881	288.27039	487.22208							
1898	15.808	1023.47668	277.85620	414.66403	1627.94006	287.75729	477.66013							
1899	15.817	1023.25433	279.23264	406.27719	1627.96423	287.16193	467.39975							
1900	15.825	1023.20984	280.86276	397.54703	1627.92871	287.63269	456.96548							
1901	15.833	1023.10669	282.79214	388.59741	1627.76599	288.05017	446.80106							
1902	15.842	1023.17407	285.14798	379.28595	1627.84827	290.60690	435.77435							
1903	15.850	1022.98468	287.30936	369.80957	1627.19714	289.81348	426.00656							
1904	15.858	1023.06421	289.70187	360.16196	1627.11365	291.23242	415.56174							
1905	15.867	1023.05194	292.32477	350.70999	1626.68640	292.76468	405.01007							
1906	15.875	1023.17163	295.34576	340.87762	1626.41016	294.71323	394.43420							
1907	15.883	1023.35272	298.40598	331.21240	1626.42542	297.11325	383.96820							
1908	15.892	1023.66632	302.23868	320.44089	1626.20703	299.63760	373.55505							
1909	15.900	1023.92786	305.91495	310.80862	1626.15833	302.59018	363.25037							
1910	15.908	1024.44055	309.85297	300.95456	1625.92590	305.54089	353.07324							
1911	15.917	1024.73730	314.01041	291.55054	1626.17371	308.95456	343.40921							
1912	15.925	1025.12512	318.37744	282.16641	1625.79468	312.57178	333.58908							
1913	15.933	1025.55603	322.91183	273.08539	1625.43201	316.19580	324.19434							
1914	15.942	1025.83789	327.65030	264.11893	1625.44031	320.64389	314.84344							
1915	15.950	1026.23181	332.51114	255.52197	1625.65002	324.83194	306.27493							
1916	15.958	1026.48364	337.61572	247.18445	1625.64722	329.52936	297.37125							
1917	15.967	1026.84937	342.61771	239.07188	1625.66858	334.11157	288.94504							
1918	15.975	1027.22437	347.77783	231.31299	1625.49194	338.76221	280.71902							
1919	15.983	1027.66199	352.87210	223.85376	1625.45435	343.34497	272.85855							
1920	15.992	1028.09485	358.05600	216.76602	1625.45386	348.02963	265.24219							
1921	16.000	1028.66187	363.01279	210.13065	1625.22522	352.62903	258.06570							
1922	16.008	1028.80127	368.02731	203.95804	1624.97803	357.24738	251.10959							
1923	16.017	1029.10156	372.85571	198.27614	1624.74023	361.75000	244.79802							
1924	16.025	1028.47717	377.63202	192.97775	1624.50073	366.00766	238.66859							
1925	16.033	1028.76343	382.10666	188.11827	1624.31995	370.17087	232.96544							
1926	16.042	1029.13293	386.51019	183.61159	1624.17468	374.29422	227.86070							
